<svg xmlns="http://www.w3.org/2000/svg" viewBox="0 0 32.32 25.08"><defs><style>.cls-1{fill:#ec6a04;fill-rule:evenodd;}</style></defs><g id="Layer_2" data-name="Layer 2"><g id="Layer_1-2" data-name="Layer 1"><path class="cls-1" d="M16.29,15.77,23,19.13h0l1-.77h-.26L17.58,14a2.2,2.2,0,0,0-2.07-1.81,2.2,2.2,0,0,0-1.81,2.07A2.2,2.2,0,0,0,15.77,16,.91.91,0,0,0,16.29,15.77ZM23,19.13l6.72,3.36L24,18.36ZM16.55,14a.69.69,0,0,1-.78.78.54.54,0,0,1-.78-.52c-.25-.52.26-.78.52-1C16,13.18,16.29,13.44,16.55,14Z"/><path class="cls-1" d="M16,0A16.17,16.17,0,0,1,32.32,16a16.54,16.54,0,0,1-2.59,8.53A28.36,28.36,0,0,0,26.63,22,11.95,11.95,0,0,0,16,4.14,11.86,11.86,0,0,0,4.14,16,12.36,12.36,0,0,0,6,22.23c-1,1-2.07,1.81-3.11,2.85A15.68,15.68,0,0,1,0,16,16.11,16.11,0,0,1,16,0Z"/></g></g></svg>